<svg xmlns="http://www.w3.org/2000/svg" xmlns:xlink="http://www.w3.org/1999/xlink" viewBox="0 0 270 270"><defs><style>.cls-1,.cls-13,.cls-14,.cls-17,.cls-18,.cls-23,.cls-5{fill:none;}.cls-2{fill:#e6e6e6;}.cls-2,.cls-26,.cls-5{stroke:#1b1464;stroke-width:6px;}.cls-12,.cls-13,.cls-14,.cls-15,.cls-17,.cls-18,.cls-2,.cls-23,.cls-24,.cls-25,.cls-26,.cls-5{stroke-linecap:round;}.cls-10,.cls-17,.cls-18,.cls-2,.cls-23,.cls-24,.cls-26,.cls-5,.cls-9{stroke-miterlimit:10;}.cls-3{clip-path:url(#clip-path);}.cls-4{fill:#b3b3b3;}.cls-6{fill:#1b1464;}.cls-7{clip-path:url(#clip-path-3);}.cls-8{opacity:0.85;}.cls-9{fill:#594f52;}.cls-10,.cls-12,.cls-13,.cls-15,.cls-9{stroke:#231f20;}.cls-10,.cls-12,.cls-23,.cls-24,.cls-9{stroke-width:5px;}.cls-10,.cls-12{fill:#fff;}.cls-11,.cls-15{fill:#c1272d;}.cls-11,.cls-22{opacity:0.5;}.cls-12,.cls-13,.cls-14,.cls-15,.cls-25{stroke-linejoin:round;}.cls-13,.cls-14,.cls-15{stroke-width:4px;}.cls-14{stroke:#fff;}.cls-16{fill:#231f20;}.cls-17{stroke:#ffe9ef;stroke-width:3px;}.cls-18{stroke:#c1272d;stroke-width:3.5px;}.cls-19{fill:#473f42;}.cls-20{opacity:0.1;}.cls-21{fill:#011526;opacity:0.66;}.cls-22,.cls-26{fill:#f2f2f2;}.cls-23,.cls-25{stroke:#0071bc;}.cls-24{fill:#0071bc;stroke:#2e3192;}.cls-25{fill:#29abe2;stroke-width:4.5px;}</style><clipPath id="clip-path"><circle class="cls-1" cx="135" cy="135.04" r="132.01"/></clipPath><clipPath id="clip-path-3"><path class="cls-1" d="M177.78,27.56h0A88.23,88.23,0,0,0,95.35,85,26.23,26.23,0,0,0,92,84.8h0A26.8,26.8,0,0,0,65.3,111.53v50.53A26.8,26.8,0,0,0,92,188.78h0a26.4,26.4,0,0,0,6.07-.71A88.19,88.19,0,0,0,177.78,239h0c48.35,0,91.61-36.82,91.61-112.82,0-16-6-33.73-10.28-44A88.23,88.23,0,0,0,177.78,27.56Z"/></clipPath></defs><g id="图层_1" data-name="图层 1"><circle class="cls-2" cx="135" cy="135.04" r="132.01"/><g class="cls-3"><path class="cls-4" d="M221.16,32.56a13.81,13.81,0,0,1,.29,2.72c0,17.81-33.74,32.24-75.36,32.24S70.74,53.09,70.74,35.28c0-7.29,5.66-14,15.19-19.41C43.75,36.76,14.67,81,14.67,132.12c0,71.29,56.49,129.09,126.17,129.09S267,203.41,267,132.12A130,130,0,0,0,221.16,32.56Z"/></g><rect class="cls-5" x="39.13" y="53.26" width="112.73" height="167.06" rx="48.25"/><g class="cls-3"><rect class="cls-5" x="-63.02" y="71.37" width="167.06" height="127.34" rx="54.5"/><path class="cls-5" d="M214.44,109C214.44,49.13,165.41.1,105.5.1"/><path class="cls-5" d="M171.51,97.66c0-49.16-54.24-77.7-103.4-77.7"/><path class="cls-6" d="M177.78,242a91.43,91.43,0,0,1-81.39-50.56,29.22,29.22,0,0,1-4.37.33A29.76,29.76,0,0,1,62.3,162.06V111.53A29.76,29.76,0,0,1,92,81.8c.44,0,.89,0,1.34,0a90.89,90.89,0,0,1,175.33,33.63V151.1A91,91,0,0,1,177.78,242Z"/><path class="cls-6" d="M177.78,27.56a88.17,88.17,0,0,1,87.91,87.91V151.1a87.87,87.87,0,0,1-167.6,37,26.4,26.4,0,0,1-6.07.71h0A26.8,26.8,0,0,1,65.3,162.06V111.53A26.8,26.8,0,0,1,92,84.8h0a26.23,26.23,0,0,1,3.33.22,88.23,88.23,0,0,1,82.43-57.46m0-6A94.45,94.45,0,0,0,91.37,78.81,32.76,32.76,0,0,0,59.3,111.53v50.53A32.75,32.75,0,0,0,92,194.78c.88,0,1.77,0,2.65-.11A94.45,94.45,0,0,0,177.78,245a94.17,94.17,0,0,0,93.91-93.91V115.47a94.17,94.17,0,0,0-93.91-93.91Z"/><g class="cls-7"><g class="cls-8"><path class="cls-9" d="M29.16,64.35c-44.57,15.54-30.44,95.68,30,61C97.17,103.51,62.58,52.7,29.16,64.35Z"/><path class="cls-9" d="M231.76,50.75c-34.37-29.48-88.26,30.81-26.71,57.3C243.77,124.72,259.83,74.82,231.76,50.75Z"/><path class="cls-10" d="M107.39,67.1C-29.48,97.72-33.11,301.53,152.12,262.39,329.14,225,244.74,36.37,107.39,67.1Z"/><circle class="cls-11" cx="208.61" cy="185.21" r="30.99"/><circle class="cls-11" cx="85.65" cy="205.67" r="34.93"/><path class="cls-9" d="M71.24,139.24c-19.08,28.63,17.28,64.83,41.48,30.38C140.66,129.84,96.93,100.69,71.24,139.24Z"/><path class="cls-9" d="M204.91,124.05c24.22,23.82-3.1,62.08-33.95,37.74C133.28,132.06,172.3,92,204.91,124.05Z"/><path class="cls-12" d="M148.85,75.14c17.47-10,.63-29.32-14.29-11.71-9.83-26.53-24.6-15.31-22.63,2.68-23.24-14.24-20.59,9.52-9.47,14.37"/><path class="cls-13" d="M160.69,102.35c1.12-8.77,10.77-9.45,16.72-2.66"/><path class="cls-13" d="M78.05,113.34c1.13-8.77,10.77-9.45,16.72-2.66"/><path class="cls-14" d="M199.48,133.63c5,19.28-21.07,25.28-27.53,6"/><path class="cls-14" d="M108.85,147.76c2.74,19.94-26.37,22.18-30.58,4.69"/><path class="cls-13" d="M132.74,175.05c4.4,4.67,17.1,5.06,22.77-2"/><path class="cls-13" d="M126.25,179.39c6.41-1.62,7.45-6.13,5.75-9.82"/><path class="cls-13" d="M161.86,173.22c-4.6,1.67-7.83-.83-8-6.61"/><path class="cls-15" d="M138.1,177.94c4.87,15.4,16.23,12.36,14.6-2.28C151.42,178.77,139.13,179.85,138.1,177.94Z"/><path class="cls-16" d="M152.13,154.7c.46,4.2-3.17,9.59-8.34,10.16s-9.89-3.88-10.36-8.08,3.51-6.55,8.67-7.12S151.66,150.5,152.13,154.7Z"/><line class="cls-17" x1="133.43" y1="136.67" x2="132.68" y2="142.85"/><line class="cls-17" x1="139.1" y1="135.72" x2="140.02" y2="142.51"/><line class="cls-17" x1="144.73" y1="135.89" x2="146.81" y2="141.59"/><path class="cls-18" d="M62.21,198.18s8.44-10.2,13-1c6.9,14,11.08-11.82,23,2.08,4.71,5.47,7.2,4.17,12.49-3"/><path class="cls-18" d="M187.54,191.89s2.56-11.56,11.47-6.41c13.51,7.79,2.39-16.26,19.46-9.55,4.72,1.85,9.39-2,7.07-9.93"/><path class="cls-19" d="M19.25,77.43C7,85,13.44,110.07,26.19,112.06a103.12,103.12,0,0,0-7.57,11.77C-.15,109.65,12.37,78.38,19.25,77.43Z"/><path class="cls-19" d="M219.43,48.37C200.26,47,186.91,59.27,198.36,74.8c-5.32-3.42-15-7.43-15-7.43C190.82,51.52,201.91,45.43,219.43,48.37Z"/><path class="cls-20" d="M175.66,249.68s-84.35,28.58-129.51-5.77C-8.77,202.15,10.64,115.43,89.6,77.08-37.81,151.14,48.21,286.82,175.66,249.68Z"/><path class="cls-20" d="M114.87,65.16c.7,3.23-1,5.58-6.5,3,7,5.82,10.12.27,9.7-2.9-.66-4.82-1.77-10.9,1.24-14.37C119.31,50.89,114.44,53.14,114.87,65.16Z"/><path class="cls-13" d="M135.26,208.94c5.93,10.92,29.91,9.38,30.61-6.21"/></g><path class="cls-21" d="M178.07,27.56c-73.6,0-107.48,111-65.42,149.54,0,45.56,54.91,67.75,86.71,59.3L122,267.05,58.61,163.39V86.81L122,27.6Z"/><path class="cls-22" d="M95.35,85c-15.41,0-24.76,13.8-24.76,27.82v46.73c0,16.36,9.35,28.5,27.5,28.5l-39.18,5.38-1.17-118Z"/></g></g><path class="cls-23" d="M33.66,95V83c0-4.9,8.56-5.72,0-11.29-10.66-6.93,12.43-4.27,0-11.37-11.95-6.83,9.77-5.33,0-12.44-8.32-6,.19-5.62,0-12.43V25.29"/><path class="cls-24" d="M33.22,106.1,22.6,109.33A11.1,11.1,0,1,1,43.93,109Z"/><path class="cls-25" d="M35.73,5l1.31,4a2.65,2.65,0,0,0,2.52,1.83h4.25a2.64,2.64,0,0,1,1.55,4.78l-3.44,2.5a2.65,2.65,0,0,0-1,2.95l1.32,4.05a2.64,2.64,0,0,1-4.07,2.95l-3.44-2.5a2.66,2.66,0,0,0-3.11,0l-3.44,2.5a2.64,2.64,0,0,1-4.07-2.95l1.32-4.05a2.65,2.65,0,0,0-1-2.95l-3.44-2.5a2.64,2.64,0,0,1,1.55-4.78h4.25a2.65,2.65,0,0,0,2.52-1.83L30.7,5A2.64,2.64,0,0,1,35.73,5Z"/><path class="cls-26" d="M40.29,174.17h0c-16.06,0-24.52-30.67-24.52-46.72v-.82a21.44,21.44,0,0,1,21.38-21.38h0a11.36,11.36,0,0,1,11.33,11.32V166A8.21,8.21,0,0,1,40.29,174.17Z"/><path class="cls-4" d="M39.72,111.67c-19.87,2.34-9.33,55.52,0,57.25-8.18,0-20.57-30.16-17.53-45.56C23.89,114.75,31.76,111.67,39.72,111.67Z"/><path class="cls-22" d="M210.39,29.19c17,12,26,31,29,47-8-11-19-5-16,10,2.78,13.94,15.76,20.64,20.53,5.45,16.11,60.91-5.41,132.9-48.53,145.55,49.94-9.43,70-54.92,70-105C265.39,91,243.76,47.44,210.39,29.19Z"/></g></svg>